G04 (created by PCBNEW (2013-07-07 BZR 4022)-stable) date 5/29/2014 5:34:06 PM*
%MOIN*%
G04 Gerber Fmt 3.4, Leading zero omitted, Abs format*
%FSLAX34Y34*%
G01*
G70*
G90*
G04 APERTURE LIST*
%ADD10C,0.00590551*%
%ADD11C,0.011811*%
%ADD12C,0.012*%
%ADD13C,0.005*%
%ADD14C,0.015*%
%ADD15C,0.008*%
%ADD16C,0.0107*%
%ADD17C,0.0106*%
%ADD18C,0.006*%
%ADD19C,0.01125*%
%ADD20C,0.0075*%
G04 APERTURE END LIST*
G54D10*
G54D11*
X9539Y-6989D02*
X9539Y-6398D01*
X9736Y-6820D01*
X9933Y-6398D01*
X9933Y-6989D01*
X10467Y-6989D02*
X10467Y-6679D01*
X10439Y-6623D01*
X10383Y-6595D01*
X10270Y-6595D01*
X10214Y-6623D01*
X10467Y-6960D02*
X10411Y-6989D01*
X10270Y-6989D01*
X10214Y-6960D01*
X10186Y-6904D01*
X10186Y-6848D01*
X10214Y-6792D01*
X10270Y-6764D01*
X10411Y-6764D01*
X10467Y-6735D01*
X10748Y-6989D02*
X10748Y-6595D01*
X10748Y-6707D02*
X10776Y-6651D01*
X10804Y-6623D01*
X10861Y-6595D01*
X10917Y-6595D01*
X11086Y-6960D02*
X11142Y-6989D01*
X11254Y-6989D01*
X11311Y-6960D01*
X11339Y-6904D01*
X11339Y-6876D01*
X11311Y-6820D01*
X11254Y-6792D01*
X11170Y-6792D01*
X11114Y-6764D01*
X11086Y-6707D01*
X11086Y-6679D01*
X11114Y-6623D01*
X11170Y-6595D01*
X11254Y-6595D01*
X11311Y-6623D01*
X12379Y-6989D02*
X12182Y-6707D01*
X12042Y-6989D02*
X12042Y-6398D01*
X12267Y-6398D01*
X12323Y-6426D01*
X12351Y-6454D01*
X12379Y-6510D01*
X12379Y-6595D01*
X12351Y-6651D01*
X12323Y-6679D01*
X12267Y-6707D01*
X12042Y-6707D01*
X12632Y-6989D02*
X12632Y-6595D01*
X12632Y-6398D02*
X12604Y-6426D01*
X12632Y-6454D01*
X12660Y-6426D01*
X12632Y-6398D01*
X12632Y-6454D01*
X12885Y-6960D02*
X12942Y-6989D01*
X13054Y-6989D01*
X13110Y-6960D01*
X13138Y-6904D01*
X13138Y-6876D01*
X13110Y-6820D01*
X13054Y-6792D01*
X12970Y-6792D01*
X12913Y-6764D01*
X12885Y-6707D01*
X12885Y-6679D01*
X12913Y-6623D01*
X12970Y-6595D01*
X13054Y-6595D01*
X13110Y-6623D01*
X13392Y-6989D02*
X13392Y-6595D01*
X13392Y-6398D02*
X13363Y-6426D01*
X13392Y-6454D01*
X13420Y-6426D01*
X13392Y-6398D01*
X13392Y-6454D01*
X13673Y-6595D02*
X13673Y-6989D01*
X13673Y-6651D02*
X13701Y-6623D01*
X13757Y-6595D01*
X13841Y-6595D01*
X13898Y-6623D01*
X13926Y-6679D01*
X13926Y-6989D01*
X14460Y-6595D02*
X14460Y-7073D01*
X14432Y-7129D01*
X14404Y-7157D01*
X14348Y-7185D01*
X14263Y-7185D01*
X14207Y-7157D01*
X14460Y-6960D02*
X14404Y-6989D01*
X14291Y-6989D01*
X14235Y-6960D01*
X14207Y-6932D01*
X14179Y-6876D01*
X14179Y-6707D01*
X14207Y-6651D01*
X14235Y-6623D01*
X14291Y-6595D01*
X14404Y-6595D01*
X14460Y-6623D01*
X8526Y-7933D02*
X8526Y-7343D01*
X8526Y-7624D02*
X8864Y-7624D01*
X8864Y-7933D02*
X8864Y-7343D01*
X9230Y-7933D02*
X9173Y-7905D01*
X9145Y-7877D01*
X9117Y-7821D01*
X9117Y-7652D01*
X9145Y-7596D01*
X9173Y-7568D01*
X9230Y-7540D01*
X9314Y-7540D01*
X9370Y-7568D01*
X9398Y-7596D01*
X9426Y-7652D01*
X9426Y-7821D01*
X9398Y-7877D01*
X9370Y-7905D01*
X9314Y-7933D01*
X9230Y-7933D01*
X9764Y-7933D02*
X9708Y-7905D01*
X9679Y-7849D01*
X9679Y-7343D01*
X9989Y-7933D02*
X9989Y-7540D01*
X9989Y-7343D02*
X9961Y-7371D01*
X9989Y-7399D01*
X10017Y-7371D01*
X9989Y-7343D01*
X9989Y-7399D01*
X10523Y-7933D02*
X10523Y-7343D01*
X10523Y-7905D02*
X10467Y-7933D01*
X10354Y-7933D01*
X10298Y-7905D01*
X10270Y-7877D01*
X10242Y-7821D01*
X10242Y-7652D01*
X10270Y-7596D01*
X10298Y-7568D01*
X10354Y-7540D01*
X10467Y-7540D01*
X10523Y-7568D01*
X11057Y-7933D02*
X11057Y-7624D01*
X11029Y-7568D01*
X10973Y-7540D01*
X10861Y-7540D01*
X10804Y-7568D01*
X11057Y-7905D02*
X11001Y-7933D01*
X10861Y-7933D01*
X10804Y-7905D01*
X10776Y-7849D01*
X10776Y-7793D01*
X10804Y-7737D01*
X10861Y-7708D01*
X11001Y-7708D01*
X11057Y-7680D01*
X11282Y-7540D02*
X11423Y-7933D01*
X11564Y-7540D02*
X11423Y-7933D01*
X11367Y-8074D01*
X11339Y-8102D01*
X11282Y-8130D01*
X12520Y-7933D02*
X12239Y-7933D01*
X12239Y-7343D01*
X12717Y-7933D02*
X12717Y-7540D01*
X12717Y-7343D02*
X12688Y-7371D01*
X12717Y-7399D01*
X12745Y-7371D01*
X12717Y-7343D01*
X12717Y-7399D01*
X13251Y-7540D02*
X13251Y-8018D01*
X13223Y-8074D01*
X13195Y-8102D01*
X13138Y-8130D01*
X13054Y-8130D01*
X12998Y-8102D01*
X13251Y-7905D02*
X13195Y-7933D01*
X13082Y-7933D01*
X13026Y-7905D01*
X12998Y-7877D01*
X12970Y-7821D01*
X12970Y-7652D01*
X12998Y-7596D01*
X13026Y-7568D01*
X13082Y-7540D01*
X13195Y-7540D01*
X13251Y-7568D01*
X13532Y-7933D02*
X13532Y-7343D01*
X13785Y-7933D02*
X13785Y-7624D01*
X13757Y-7568D01*
X13701Y-7540D01*
X13616Y-7540D01*
X13560Y-7568D01*
X13532Y-7596D01*
X13982Y-7540D02*
X14207Y-7540D01*
X14066Y-7343D02*
X14066Y-7849D01*
X14095Y-7905D01*
X14151Y-7933D01*
X14207Y-7933D01*
X14404Y-7933D02*
X14404Y-7540D01*
X14404Y-7343D02*
X14376Y-7371D01*
X14404Y-7399D01*
X14432Y-7371D01*
X14404Y-7343D01*
X14404Y-7399D01*
X14685Y-7540D02*
X14685Y-7933D01*
X14685Y-7596D02*
X14713Y-7568D01*
X14769Y-7540D01*
X14854Y-7540D01*
X14910Y-7568D01*
X14938Y-7624D01*
X14938Y-7933D01*
X15473Y-7540D02*
X15473Y-8018D01*
X15444Y-8074D01*
X15416Y-8102D01*
X15360Y-8130D01*
X15276Y-8130D01*
X15219Y-8102D01*
X15473Y-7905D02*
X15416Y-7933D01*
X15304Y-7933D01*
X15248Y-7905D01*
X15219Y-7877D01*
X15191Y-7821D01*
X15191Y-7652D01*
X15219Y-7596D01*
X15248Y-7568D01*
X15304Y-7540D01*
X15416Y-7540D01*
X15473Y-7568D01*
X6600Y-8878D02*
X6600Y-8288D01*
X6825Y-8288D01*
X6881Y-8316D01*
X6910Y-8344D01*
X6938Y-8400D01*
X6938Y-8485D01*
X6910Y-8541D01*
X6881Y-8569D01*
X6825Y-8597D01*
X6600Y-8597D01*
X7191Y-8878D02*
X7191Y-8485D01*
X7191Y-8597D02*
X7219Y-8541D01*
X7247Y-8513D01*
X7303Y-8485D01*
X7359Y-8485D01*
X7641Y-8878D02*
X7584Y-8850D01*
X7556Y-8822D01*
X7528Y-8766D01*
X7528Y-8597D01*
X7556Y-8541D01*
X7584Y-8513D01*
X7641Y-8485D01*
X7725Y-8485D01*
X7781Y-8513D01*
X7809Y-8541D01*
X7838Y-8597D01*
X7838Y-8766D01*
X7809Y-8822D01*
X7781Y-8850D01*
X7725Y-8878D01*
X7641Y-8878D01*
X8006Y-8485D02*
X8231Y-8485D01*
X8091Y-8288D02*
X8091Y-8794D01*
X8119Y-8850D01*
X8175Y-8878D01*
X8231Y-8878D01*
X8512Y-8878D02*
X8456Y-8850D01*
X8428Y-8822D01*
X8400Y-8766D01*
X8400Y-8597D01*
X8428Y-8541D01*
X8456Y-8513D01*
X8512Y-8485D01*
X8597Y-8485D01*
X8653Y-8513D01*
X8681Y-8541D01*
X8709Y-8597D01*
X8709Y-8766D01*
X8681Y-8822D01*
X8653Y-8850D01*
X8597Y-8878D01*
X8512Y-8878D01*
X8878Y-8485D02*
X9103Y-8485D01*
X8962Y-8288D02*
X8962Y-8794D01*
X8991Y-8850D01*
X9047Y-8878D01*
X9103Y-8878D01*
X9244Y-8485D02*
X9384Y-8878D01*
X9525Y-8485D02*
X9384Y-8878D01*
X9328Y-9019D01*
X9300Y-9047D01*
X9244Y-9075D01*
X9750Y-8485D02*
X9750Y-9075D01*
X9750Y-8513D02*
X9806Y-8485D01*
X9919Y-8485D01*
X9975Y-8513D01*
X10003Y-8541D01*
X10031Y-8597D01*
X10031Y-8766D01*
X10003Y-8822D01*
X9975Y-8850D01*
X9919Y-8878D01*
X9806Y-8878D01*
X9750Y-8850D01*
X10509Y-8850D02*
X10453Y-8878D01*
X10340Y-8878D01*
X10284Y-8850D01*
X10256Y-8794D01*
X10256Y-8569D01*
X10284Y-8513D01*
X10340Y-8485D01*
X10453Y-8485D01*
X10509Y-8513D01*
X10537Y-8569D01*
X10537Y-8625D01*
X10256Y-8681D01*
X11521Y-8878D02*
X11240Y-8878D01*
X11240Y-8288D01*
X11718Y-8569D02*
X11915Y-8569D01*
X12000Y-8878D02*
X11718Y-8878D01*
X11718Y-8288D01*
X12000Y-8288D01*
X12253Y-8878D02*
X12253Y-8288D01*
X12393Y-8288D01*
X12478Y-8316D01*
X12534Y-8372D01*
X12562Y-8428D01*
X12590Y-8541D01*
X12590Y-8625D01*
X12562Y-8738D01*
X12534Y-8794D01*
X12478Y-8850D01*
X12393Y-8878D01*
X12253Y-8878D01*
X13631Y-8822D02*
X13602Y-8850D01*
X13518Y-8878D01*
X13462Y-8878D01*
X13377Y-8850D01*
X13321Y-8794D01*
X13293Y-8738D01*
X13265Y-8625D01*
X13265Y-8541D01*
X13293Y-8428D01*
X13321Y-8372D01*
X13377Y-8316D01*
X13462Y-8288D01*
X13518Y-8288D01*
X13602Y-8316D01*
X13631Y-8344D01*
X13968Y-8878D02*
X13912Y-8850D01*
X13884Y-8822D01*
X13856Y-8766D01*
X13856Y-8597D01*
X13884Y-8541D01*
X13912Y-8513D01*
X13968Y-8485D01*
X14052Y-8485D01*
X14109Y-8513D01*
X14137Y-8541D01*
X14165Y-8597D01*
X14165Y-8766D01*
X14137Y-8822D01*
X14109Y-8850D01*
X14052Y-8878D01*
X13968Y-8878D01*
X14418Y-8485D02*
X14418Y-8878D01*
X14418Y-8541D02*
X14446Y-8513D01*
X14502Y-8485D01*
X14587Y-8485D01*
X14643Y-8513D01*
X14671Y-8569D01*
X14671Y-8878D01*
X14868Y-8485D02*
X15093Y-8485D01*
X14952Y-8288D02*
X14952Y-8794D01*
X14980Y-8850D01*
X15037Y-8878D01*
X15093Y-8878D01*
X15290Y-8878D02*
X15290Y-8485D01*
X15290Y-8597D02*
X15318Y-8541D01*
X15346Y-8513D01*
X15402Y-8485D01*
X15458Y-8485D01*
X15740Y-8878D02*
X15683Y-8850D01*
X15655Y-8822D01*
X15627Y-8766D01*
X15627Y-8597D01*
X15655Y-8541D01*
X15683Y-8513D01*
X15740Y-8485D01*
X15824Y-8485D01*
X15880Y-8513D01*
X15908Y-8541D01*
X15937Y-8597D01*
X15937Y-8766D01*
X15908Y-8822D01*
X15880Y-8850D01*
X15824Y-8878D01*
X15740Y-8878D01*
X16274Y-8878D02*
X16218Y-8850D01*
X16190Y-8794D01*
X16190Y-8288D01*
X16583Y-8878D02*
X16527Y-8850D01*
X16499Y-8794D01*
X16499Y-8288D01*
X17033Y-8850D02*
X16977Y-8878D01*
X16865Y-8878D01*
X16808Y-8850D01*
X16780Y-8794D01*
X16780Y-8569D01*
X16808Y-8513D01*
X16865Y-8485D01*
X16977Y-8485D01*
X17033Y-8513D01*
X17061Y-8569D01*
X17061Y-8625D01*
X16780Y-8681D01*
X17314Y-8878D02*
X17314Y-8485D01*
X17314Y-8597D02*
X17343Y-8541D01*
X17371Y-8513D01*
X17427Y-8485D01*
X17483Y-8485D01*
X9240Y-23648D02*
X9437Y-24239D01*
X9634Y-23648D01*
X9803Y-24210D02*
X9887Y-24239D01*
X10028Y-24239D01*
X10084Y-24210D01*
X10112Y-24182D01*
X10140Y-24126D01*
X10140Y-24070D01*
X10112Y-24014D01*
X10084Y-23985D01*
X10028Y-23957D01*
X9915Y-23929D01*
X9859Y-23901D01*
X9831Y-23873D01*
X9803Y-23817D01*
X9803Y-23760D01*
X9831Y-23704D01*
X9859Y-23676D01*
X9915Y-23648D01*
X10056Y-23648D01*
X10140Y-23676D01*
X10365Y-24210D02*
X10449Y-24239D01*
X10590Y-24239D01*
X10646Y-24210D01*
X10674Y-24182D01*
X10703Y-24126D01*
X10703Y-24070D01*
X10674Y-24014D01*
X10646Y-23985D01*
X10590Y-23957D01*
X10478Y-23929D01*
X10421Y-23901D01*
X10393Y-23873D01*
X10365Y-23817D01*
X10365Y-23760D01*
X10393Y-23704D01*
X10421Y-23676D01*
X10478Y-23648D01*
X10618Y-23648D01*
X10703Y-23676D01*
X14676Y-24182D02*
X14648Y-24210D01*
X14564Y-24239D01*
X14507Y-24239D01*
X14423Y-24210D01*
X14367Y-24154D01*
X14339Y-24098D01*
X14311Y-23985D01*
X14311Y-23901D01*
X14339Y-23789D01*
X14367Y-23732D01*
X14423Y-23676D01*
X14507Y-23648D01*
X14564Y-23648D01*
X14648Y-23676D01*
X14676Y-23704D01*
X14845Y-23648D02*
X15182Y-23648D01*
X15014Y-24239D02*
X15014Y-23648D01*
X15351Y-24210D02*
X15435Y-24239D01*
X15576Y-24239D01*
X15632Y-24210D01*
X15660Y-24182D01*
X15688Y-24126D01*
X15688Y-24070D01*
X15660Y-24014D01*
X15632Y-23985D01*
X15576Y-23957D01*
X15464Y-23929D01*
X15407Y-23901D01*
X15379Y-23873D01*
X15351Y-23817D01*
X15351Y-23760D01*
X15379Y-23704D01*
X15407Y-23676D01*
X15464Y-23648D01*
X15604Y-23648D01*
X15688Y-23676D01*
X34145Y-17960D02*
X34229Y-17989D01*
X34370Y-17989D01*
X34426Y-17960D01*
X34454Y-17932D01*
X34482Y-17876D01*
X34482Y-17820D01*
X34454Y-17764D01*
X34426Y-17735D01*
X34370Y-17707D01*
X34257Y-17679D01*
X34201Y-17651D01*
X34173Y-17623D01*
X34145Y-17567D01*
X34145Y-17510D01*
X34173Y-17454D01*
X34201Y-17426D01*
X34257Y-17398D01*
X34398Y-17398D01*
X34482Y-17426D01*
X34735Y-17989D02*
X34735Y-17398D01*
X35326Y-17426D02*
X35270Y-17398D01*
X35185Y-17398D01*
X35101Y-17426D01*
X35045Y-17482D01*
X35017Y-17539D01*
X34989Y-17651D01*
X34989Y-17735D01*
X35017Y-17848D01*
X35045Y-17904D01*
X35101Y-17960D01*
X35185Y-17989D01*
X35242Y-17989D01*
X35326Y-17960D01*
X35354Y-17932D01*
X35354Y-17735D01*
X35242Y-17735D01*
X34300Y-18426D02*
X34243Y-18398D01*
X34159Y-18398D01*
X34075Y-18426D01*
X34018Y-18482D01*
X33990Y-18539D01*
X33962Y-18651D01*
X33962Y-18735D01*
X33990Y-18848D01*
X34018Y-18904D01*
X34075Y-18960D01*
X34159Y-18989D01*
X34215Y-18989D01*
X34300Y-18960D01*
X34328Y-18932D01*
X34328Y-18735D01*
X34215Y-18735D01*
X34581Y-18989D02*
X34581Y-18398D01*
X34918Y-18989D01*
X34918Y-18398D01*
X35199Y-18989D02*
X35199Y-18398D01*
X35340Y-18398D01*
X35424Y-18426D01*
X35481Y-18482D01*
X35509Y-18539D01*
X35537Y-18651D01*
X35537Y-18735D01*
X35509Y-18848D01*
X35481Y-18904D01*
X35424Y-18960D01*
X35340Y-18989D01*
X35199Y-18989D01*
X33990Y-19764D02*
X34440Y-19764D01*
X34215Y-19989D02*
X34215Y-19539D01*
X35003Y-19398D02*
X34721Y-19398D01*
X34693Y-19679D01*
X34721Y-19651D01*
X34778Y-19623D01*
X34918Y-19623D01*
X34974Y-19651D01*
X35003Y-19679D01*
X35031Y-19735D01*
X35031Y-19876D01*
X35003Y-19932D01*
X34974Y-19960D01*
X34918Y-19989D01*
X34778Y-19989D01*
X34721Y-19960D01*
X34693Y-19932D01*
X35199Y-19398D02*
X35396Y-19989D01*
X35593Y-19398D01*
X32000Y-11000D02*
X29000Y-11000D01*
X29000Y-7000D02*
X32000Y-7000D01*
G54D12*
X27000Y-8000D02*
X29000Y-8000D01*
X27000Y-9000D02*
X29000Y-9000D01*
X27000Y-10000D02*
X29000Y-10000D01*
X29000Y-7000D02*
X29000Y-11000D01*
X32000Y-10500D02*
X32000Y-7000D01*
X32000Y-10500D02*
X32000Y-11000D01*
G54D11*
X29000Y-14000D02*
X32000Y-14000D01*
G54D10*
X32000Y-14000D02*
X32000Y-18000D01*
G54D11*
X32000Y-18000D02*
X29000Y-18000D01*
G54D10*
X29000Y-18000D02*
X29000Y-14000D01*
G54D12*
X27000Y-15000D02*
X29000Y-15000D01*
X27000Y-16000D02*
X29000Y-16000D01*
X27000Y-17000D02*
X29000Y-17000D01*
X29000Y-14000D02*
X29000Y-18000D01*
X32000Y-17500D02*
X32000Y-14000D01*
X32000Y-17500D02*
X32000Y-18000D01*
X27000Y-22000D02*
X29000Y-22000D01*
X27000Y-23000D02*
X29000Y-23000D01*
X27000Y-24000D02*
X29000Y-24000D01*
X29000Y-25000D02*
X35000Y-25000D01*
X35000Y-25000D02*
X35000Y-21000D01*
X35000Y-21000D02*
X29000Y-21000D01*
X29000Y-21000D02*
X29000Y-25000D01*
X32000Y-24500D02*
X32000Y-21000D01*
X32000Y-24500D02*
X32000Y-25000D01*
X15500Y-24500D02*
X15500Y-25500D01*
X15500Y-25500D02*
X9500Y-25500D01*
X9500Y-25500D02*
X9500Y-24500D01*
X9500Y-24500D02*
X15500Y-24500D01*
X14500Y-24500D02*
X14500Y-25500D01*
X33750Y-20250D02*
X32750Y-20250D01*
X32750Y-20250D02*
X32750Y-17250D01*
X32750Y-17250D02*
X33750Y-17250D01*
X33750Y-17250D02*
X33750Y-20250D01*
X32750Y-19250D02*
X33750Y-19250D01*
G54D13*
X17500Y-12750D02*
X17500Y-12000D01*
X17500Y-12000D02*
X14500Y-12000D01*
X14500Y-12000D02*
X14500Y-13000D01*
X14500Y-13000D02*
X17500Y-13000D01*
X17500Y-13000D02*
X17500Y-12750D01*
X17750Y-12500D02*
X17500Y-12500D01*
X14500Y-12500D02*
X14250Y-12500D01*
X17500Y-12750D02*
X17250Y-13000D01*
G54D14*
X9000Y-15000D02*
X24000Y-15000D01*
X24000Y-15000D02*
X24000Y-17000D01*
X24000Y-17000D02*
X9000Y-17000D01*
X9000Y-17000D02*
X9000Y-15000D01*
X9000Y-15500D02*
X9500Y-15500D01*
X9500Y-15500D02*
X9500Y-16500D01*
X9500Y-16500D02*
X9000Y-16500D01*
G54D12*
X23100Y-8600D02*
X25900Y-8600D01*
X25900Y-8600D02*
X25900Y-9400D01*
X25900Y-9400D02*
X23100Y-9400D01*
X23100Y-9400D02*
X23100Y-8600D01*
X23100Y-8800D02*
X23300Y-8600D01*
X19400Y-10600D02*
X19400Y-13400D01*
X19400Y-13400D02*
X18600Y-13400D01*
X18600Y-13400D02*
X18600Y-10600D01*
X18600Y-10600D02*
X19400Y-10600D01*
X19200Y-10600D02*
X19400Y-10800D01*
X7400Y-12100D02*
X7400Y-14900D01*
X7400Y-14900D02*
X6600Y-14900D01*
X6600Y-14900D02*
X6600Y-12100D01*
X6600Y-12100D02*
X7400Y-12100D01*
X7200Y-12100D02*
X7400Y-12300D01*
X18600Y-8600D02*
X21400Y-8600D01*
X21400Y-8600D02*
X21400Y-9400D01*
X21400Y-9400D02*
X18600Y-9400D01*
X18600Y-9400D02*
X18600Y-8600D01*
X18600Y-8800D02*
X18800Y-8600D01*
G54D15*
X26350Y-20500D02*
G75*
G03X26350Y-20500I-1600J0D01*
G74*
G01*
G54D13*
X25751Y-24000D02*
G75*
G03X25751Y-24000I-1001J0D01*
G74*
G01*
X35500Y-12000D02*
X34750Y-12000D01*
X34750Y-12000D02*
X34750Y-15000D01*
X34750Y-15000D02*
X35750Y-15000D01*
X35750Y-15000D02*
X35750Y-12000D01*
X35750Y-12000D02*
X35500Y-12000D01*
X35250Y-11750D02*
X35250Y-12000D01*
X35250Y-15000D02*
X35250Y-15250D01*
X35500Y-12000D02*
X35750Y-12250D01*
G54D15*
X29950Y-9038D02*
X29930Y-9076D01*
X29892Y-9114D01*
X29835Y-9171D01*
X29816Y-9209D01*
X29816Y-9247D01*
X29911Y-9228D02*
X29892Y-9266D01*
X29854Y-9304D01*
X29778Y-9323D01*
X29645Y-9323D01*
X29569Y-9304D01*
X29530Y-9266D01*
X29511Y-9228D01*
X29511Y-9152D01*
X29530Y-9114D01*
X29569Y-9076D01*
X29645Y-9057D01*
X29778Y-9057D01*
X29854Y-9076D01*
X29892Y-9114D01*
X29911Y-9152D01*
X29911Y-9228D01*
X29911Y-8676D02*
X29911Y-8904D01*
X29911Y-8790D02*
X29511Y-8790D01*
X29569Y-8828D01*
X29607Y-8866D01*
X29626Y-8904D01*
X31011Y-10666D02*
X31011Y-10438D01*
X31411Y-10552D02*
X31011Y-10552D01*
X31392Y-10323D02*
X31411Y-10266D01*
X31411Y-10171D01*
X31392Y-10133D01*
X31373Y-10114D01*
X31335Y-10095D01*
X31297Y-10095D01*
X31259Y-10114D01*
X31240Y-10133D01*
X31221Y-10171D01*
X31202Y-10247D01*
X31183Y-10285D01*
X31164Y-10304D01*
X31126Y-10323D01*
X31088Y-10323D01*
X31050Y-10304D01*
X31030Y-10285D01*
X31011Y-10247D01*
X31011Y-10152D01*
X31030Y-10095D01*
X31011Y-9847D02*
X31011Y-9771D01*
X31030Y-9733D01*
X31069Y-9695D01*
X31145Y-9676D01*
X31278Y-9676D01*
X31354Y-9695D01*
X31392Y-9733D01*
X31411Y-9771D01*
X31411Y-9847D01*
X31392Y-9885D01*
X31354Y-9923D01*
X31278Y-9942D01*
X31145Y-9942D01*
X31069Y-9923D01*
X31030Y-9885D01*
X31011Y-9847D01*
X31411Y-9504D02*
X31011Y-9504D01*
X31011Y-9352D01*
X31030Y-9314D01*
X31050Y-9295D01*
X31088Y-9276D01*
X31145Y-9276D01*
X31183Y-9295D01*
X31202Y-9314D01*
X31221Y-9352D01*
X31221Y-9504D01*
X31011Y-9142D02*
X31011Y-8895D01*
X31164Y-9028D01*
X31164Y-8971D01*
X31183Y-8933D01*
X31202Y-8914D01*
X31240Y-8895D01*
X31335Y-8895D01*
X31373Y-8914D01*
X31392Y-8933D01*
X31411Y-8971D01*
X31411Y-9085D01*
X31392Y-9123D01*
X31373Y-9142D01*
X31183Y-8666D02*
X31164Y-8704D01*
X31145Y-8723D01*
X31107Y-8742D01*
X31088Y-8742D01*
X31050Y-8723D01*
X31030Y-8704D01*
X31011Y-8666D01*
X31011Y-8590D01*
X31030Y-8552D01*
X31050Y-8533D01*
X31088Y-8514D01*
X31107Y-8514D01*
X31145Y-8533D01*
X31164Y-8552D01*
X31183Y-8590D01*
X31183Y-8666D01*
X31202Y-8704D01*
X31221Y-8723D01*
X31259Y-8742D01*
X31335Y-8742D01*
X31373Y-8723D01*
X31392Y-8704D01*
X31411Y-8666D01*
X31411Y-8590D01*
X31392Y-8552D01*
X31373Y-8533D01*
X31335Y-8514D01*
X31259Y-8514D01*
X31221Y-8533D01*
X31202Y-8552D01*
X31183Y-8590D01*
X31050Y-8361D02*
X31030Y-8342D01*
X31011Y-8304D01*
X31011Y-8209D01*
X31030Y-8171D01*
X31050Y-8152D01*
X31088Y-8133D01*
X31126Y-8133D01*
X31183Y-8152D01*
X31411Y-8380D01*
X31411Y-8133D01*
X31011Y-8000D02*
X31011Y-7752D01*
X31164Y-7885D01*
X31164Y-7828D01*
X31183Y-7790D01*
X31202Y-7771D01*
X31240Y-7752D01*
X31335Y-7752D01*
X31373Y-7771D01*
X31392Y-7790D01*
X31411Y-7828D01*
X31411Y-7942D01*
X31392Y-7980D01*
X31373Y-8000D01*
X31183Y-7523D02*
X31164Y-7561D01*
X31145Y-7580D01*
X31107Y-7600D01*
X31088Y-7600D01*
X31050Y-7580D01*
X31030Y-7561D01*
X31011Y-7523D01*
X31011Y-7447D01*
X31030Y-7409D01*
X31050Y-7390D01*
X31088Y-7371D01*
X31107Y-7371D01*
X31145Y-7390D01*
X31164Y-7409D01*
X31183Y-7447D01*
X31183Y-7523D01*
X31202Y-7561D01*
X31221Y-7580D01*
X31259Y-7600D01*
X31335Y-7600D01*
X31373Y-7580D01*
X31392Y-7561D01*
X31411Y-7523D01*
X31411Y-7447D01*
X31392Y-7409D01*
X31373Y-7390D01*
X31335Y-7371D01*
X31259Y-7371D01*
X31221Y-7390D01*
X31202Y-7409D01*
X31183Y-7447D01*
X29950Y-16038D02*
X29930Y-16076D01*
X29892Y-16114D01*
X29835Y-16171D01*
X29816Y-16209D01*
X29816Y-16247D01*
X29911Y-16228D02*
X29892Y-16266D01*
X29854Y-16304D01*
X29778Y-16323D01*
X29645Y-16323D01*
X29569Y-16304D01*
X29530Y-16266D01*
X29511Y-16228D01*
X29511Y-16152D01*
X29530Y-16114D01*
X29569Y-16076D01*
X29645Y-16057D01*
X29778Y-16057D01*
X29854Y-16076D01*
X29892Y-16114D01*
X29911Y-16152D01*
X29911Y-16228D01*
X29550Y-15904D02*
X29530Y-15885D01*
X29511Y-15847D01*
X29511Y-15752D01*
X29530Y-15714D01*
X29550Y-15695D01*
X29588Y-15676D01*
X29626Y-15676D01*
X29683Y-15695D01*
X29911Y-15923D01*
X29911Y-15676D01*
X31011Y-17961D02*
X31011Y-17695D01*
X31411Y-17961D01*
X31411Y-17695D01*
X31011Y-17600D02*
X31011Y-17371D01*
X31411Y-17485D02*
X31011Y-17485D01*
X31011Y-17295D02*
X31011Y-17066D01*
X31411Y-17180D02*
X31011Y-17180D01*
X31259Y-16933D02*
X31259Y-16628D01*
X31411Y-16228D02*
X31411Y-16457D01*
X31411Y-16342D02*
X31011Y-16342D01*
X31069Y-16380D01*
X31107Y-16419D01*
X31126Y-16457D01*
X31011Y-15885D02*
X31011Y-15961D01*
X31030Y-16000D01*
X31050Y-16019D01*
X31107Y-16057D01*
X31183Y-16076D01*
X31335Y-16076D01*
X31373Y-16057D01*
X31392Y-16038D01*
X31411Y-16000D01*
X31411Y-15923D01*
X31392Y-15885D01*
X31373Y-15866D01*
X31335Y-15847D01*
X31240Y-15847D01*
X31202Y-15866D01*
X31183Y-15885D01*
X31164Y-15923D01*
X31164Y-16000D01*
X31183Y-16038D01*
X31202Y-16057D01*
X31240Y-16076D01*
X31373Y-15676D02*
X31392Y-15657D01*
X31411Y-15676D01*
X31392Y-15695D01*
X31373Y-15676D01*
X31411Y-15676D01*
X31011Y-15409D02*
X31011Y-15371D01*
X31030Y-15333D01*
X31050Y-15314D01*
X31088Y-15295D01*
X31164Y-15276D01*
X31259Y-15276D01*
X31335Y-15295D01*
X31373Y-15314D01*
X31392Y-15333D01*
X31411Y-15371D01*
X31411Y-15409D01*
X31392Y-15447D01*
X31373Y-15466D01*
X31335Y-15485D01*
X31259Y-15504D01*
X31164Y-15504D01*
X31088Y-15485D01*
X31050Y-15466D01*
X31030Y-15447D01*
X31011Y-15409D01*
X31011Y-15028D02*
X31011Y-14990D01*
X31030Y-14952D01*
X31050Y-14933D01*
X31088Y-14914D01*
X31164Y-14895D01*
X31259Y-14895D01*
X31335Y-14914D01*
X31373Y-14933D01*
X31392Y-14952D01*
X31411Y-14990D01*
X31411Y-15028D01*
X31392Y-15066D01*
X31373Y-15085D01*
X31335Y-15104D01*
X31259Y-15123D01*
X31164Y-15123D01*
X31088Y-15104D01*
X31050Y-15085D01*
X31030Y-15066D01*
X31011Y-15028D01*
X31411Y-14723D02*
X31011Y-14723D01*
X31297Y-14590D01*
X31011Y-14457D01*
X31411Y-14457D01*
X31011Y-14304D02*
X31411Y-14038D01*
X31011Y-14038D02*
X31411Y-14304D01*
X29511Y-23304D02*
X29835Y-23304D01*
X29873Y-23285D01*
X29892Y-23266D01*
X29911Y-23228D01*
X29911Y-23152D01*
X29892Y-23114D01*
X29873Y-23095D01*
X29835Y-23076D01*
X29511Y-23076D01*
X29911Y-22676D02*
X29911Y-22904D01*
X29911Y-22790D02*
X29511Y-22790D01*
X29569Y-22828D01*
X29607Y-22866D01*
X29626Y-22904D01*
X31411Y-24219D02*
X31411Y-24409D01*
X31011Y-24409D01*
X31411Y-24085D02*
X31011Y-24085D01*
X31297Y-23952D01*
X31011Y-23819D01*
X31411Y-23819D01*
X31011Y-23666D02*
X31011Y-23400D01*
X31411Y-23571D01*
X31411Y-23228D02*
X31411Y-23152D01*
X31392Y-23114D01*
X31373Y-23095D01*
X31316Y-23057D01*
X31240Y-23038D01*
X31088Y-23038D01*
X31050Y-23057D01*
X31030Y-23076D01*
X31011Y-23114D01*
X31011Y-23190D01*
X31030Y-23228D01*
X31050Y-23247D01*
X31088Y-23266D01*
X31183Y-23266D01*
X31221Y-23247D01*
X31240Y-23228D01*
X31259Y-23190D01*
X31259Y-23114D01*
X31240Y-23076D01*
X31221Y-23057D01*
X31183Y-23038D01*
X31011Y-22790D02*
X31011Y-22752D01*
X31030Y-22714D01*
X31050Y-22695D01*
X31088Y-22676D01*
X31164Y-22657D01*
X31259Y-22657D01*
X31335Y-22676D01*
X31373Y-22695D01*
X31392Y-22714D01*
X31411Y-22752D01*
X31411Y-22790D01*
X31392Y-22828D01*
X31373Y-22847D01*
X31335Y-22866D01*
X31259Y-22885D01*
X31164Y-22885D01*
X31088Y-22866D01*
X31050Y-22847D01*
X31030Y-22828D01*
X31011Y-22790D01*
X31011Y-22295D02*
X31011Y-22485D01*
X31202Y-22504D01*
X31183Y-22485D01*
X31164Y-22447D01*
X31164Y-22352D01*
X31183Y-22314D01*
X31202Y-22295D01*
X31240Y-22276D01*
X31335Y-22276D01*
X31373Y-22295D01*
X31392Y-22314D01*
X31411Y-22352D01*
X31411Y-22447D01*
X31392Y-22485D01*
X31373Y-22504D01*
X31373Y-21876D02*
X31392Y-21895D01*
X31411Y-21952D01*
X31411Y-21990D01*
X31392Y-22047D01*
X31354Y-22085D01*
X31316Y-22104D01*
X31240Y-22123D01*
X31183Y-22123D01*
X31107Y-22104D01*
X31069Y-22085D01*
X31030Y-22047D01*
X31011Y-21990D01*
X31011Y-21952D01*
X31030Y-21895D01*
X31050Y-21876D01*
X31011Y-21761D02*
X31011Y-21533D01*
X31411Y-21647D02*
X31011Y-21647D01*
G54D16*
X12184Y-26275D02*
X12184Y-25594D01*
X12347Y-25594D01*
X12387Y-25627D01*
X12408Y-25659D01*
X12428Y-25724D01*
X12428Y-25821D01*
X12408Y-25886D01*
X12387Y-25918D01*
X12347Y-25951D01*
X12184Y-25951D01*
X12836Y-26275D02*
X12591Y-26275D01*
X12714Y-26275D02*
X12714Y-25594D01*
X12673Y-25691D01*
X12632Y-25756D01*
X12591Y-25789D01*
G54D12*
G54D17*
X32535Y-19062D02*
X31830Y-19062D01*
X32535Y-18820D02*
X32132Y-19002D01*
X31830Y-18820D02*
X32233Y-19062D01*
X32535Y-18416D02*
X32535Y-18659D01*
X32535Y-18538D02*
X31830Y-18538D01*
X31931Y-18578D01*
X31998Y-18618D01*
X32031Y-18659D01*
G54D12*
G54D18*
X15933Y-12702D02*
X15800Y-12464D01*
X15704Y-12702D02*
X15704Y-12202D01*
X15857Y-12202D01*
X15895Y-12226D01*
X15914Y-12250D01*
X15933Y-12297D01*
X15933Y-12369D01*
X15914Y-12416D01*
X15895Y-12440D01*
X15857Y-12464D01*
X15704Y-12464D01*
X16314Y-12702D02*
X16085Y-12702D01*
X16200Y-12702D02*
X16200Y-12202D01*
X16161Y-12273D01*
X16123Y-12321D01*
X16085Y-12345D01*
G54D19*
X11560Y-16242D02*
X11560Y-15642D01*
X12032Y-16185D02*
X12010Y-16214D01*
X11946Y-16242D01*
X11903Y-16242D01*
X11839Y-16214D01*
X11796Y-16157D01*
X11775Y-16100D01*
X11753Y-15985D01*
X11753Y-15900D01*
X11775Y-15785D01*
X11796Y-15728D01*
X11839Y-15671D01*
X11903Y-15642D01*
X11946Y-15642D01*
X12010Y-15671D01*
X12032Y-15700D01*
X12460Y-16242D02*
X12203Y-16242D01*
X12332Y-16242D02*
X12332Y-15642D01*
X12289Y-15728D01*
X12246Y-15785D01*
X12203Y-15814D01*
G54D12*
G54D19*
X16946Y-16071D02*
X17160Y-16071D01*
X16903Y-16242D02*
X17053Y-15642D01*
X17203Y-16242D01*
X17289Y-15642D02*
X17546Y-15642D01*
X17417Y-16242D02*
X17417Y-15642D01*
X17696Y-16242D02*
X17696Y-15642D01*
X17846Y-16071D01*
X17996Y-15642D01*
X17996Y-16242D01*
X18210Y-15928D02*
X18360Y-15928D01*
X18425Y-16242D02*
X18210Y-16242D01*
X18210Y-15642D01*
X18425Y-15642D01*
X18853Y-15671D02*
X18810Y-15642D01*
X18746Y-15642D01*
X18682Y-15671D01*
X18639Y-15728D01*
X18617Y-15785D01*
X18596Y-15900D01*
X18596Y-15985D01*
X18617Y-16100D01*
X18639Y-16157D01*
X18682Y-16214D01*
X18746Y-16242D01*
X18789Y-16242D01*
X18853Y-16214D01*
X18875Y-16185D01*
X18875Y-15985D01*
X18789Y-15985D01*
X19046Y-16071D02*
X19260Y-16071D01*
X19003Y-16242D02*
X19153Y-15642D01*
X19303Y-16242D01*
X19410Y-15642D02*
X19689Y-15642D01*
X19539Y-15871D01*
X19603Y-15871D01*
X19646Y-15900D01*
X19667Y-15928D01*
X19689Y-15985D01*
X19689Y-16128D01*
X19667Y-16185D01*
X19646Y-16214D01*
X19603Y-16242D01*
X19475Y-16242D01*
X19432Y-16214D01*
X19410Y-16185D01*
X19860Y-15700D02*
X19882Y-15671D01*
X19925Y-15642D01*
X20032Y-15642D01*
X20075Y-15671D01*
X20096Y-15700D01*
X20117Y-15757D01*
X20117Y-15814D01*
X20096Y-15900D01*
X19839Y-16242D01*
X20117Y-16242D01*
X20375Y-15900D02*
X20332Y-15871D01*
X20310Y-15842D01*
X20289Y-15785D01*
X20289Y-15757D01*
X20310Y-15700D01*
X20332Y-15671D01*
X20375Y-15642D01*
X20460Y-15642D01*
X20503Y-15671D01*
X20525Y-15700D01*
X20546Y-15757D01*
X20546Y-15785D01*
X20525Y-15842D01*
X20503Y-15871D01*
X20460Y-15900D01*
X20375Y-15900D01*
X20332Y-15928D01*
X20310Y-15957D01*
X20289Y-16014D01*
X20289Y-16128D01*
X20310Y-16185D01*
X20332Y-16214D01*
X20375Y-16242D01*
X20460Y-16242D01*
X20503Y-16214D01*
X20525Y-16185D01*
X20546Y-16128D01*
X20546Y-16014D01*
X20525Y-15957D01*
X20503Y-15928D01*
X20460Y-15900D01*
X20739Y-16014D02*
X21082Y-16014D01*
X21296Y-16242D02*
X21296Y-15642D01*
X21467Y-15642D01*
X21510Y-15671D01*
X21532Y-15700D01*
X21553Y-15757D01*
X21553Y-15842D01*
X21532Y-15900D01*
X21510Y-15928D01*
X21467Y-15957D01*
X21296Y-15957D01*
G54D12*
G54D15*
X24433Y-9123D02*
X24414Y-9142D01*
X24357Y-9161D01*
X24319Y-9161D01*
X24261Y-9142D01*
X24223Y-9104D01*
X24204Y-9066D01*
X24185Y-8990D01*
X24185Y-8933D01*
X24204Y-8857D01*
X24223Y-8819D01*
X24261Y-8780D01*
X24319Y-8761D01*
X24357Y-8761D01*
X24414Y-8780D01*
X24433Y-8800D01*
X24585Y-8800D02*
X24604Y-8780D01*
X24642Y-8761D01*
X24738Y-8761D01*
X24776Y-8780D01*
X24795Y-8800D01*
X24814Y-8838D01*
X24814Y-8876D01*
X24795Y-8933D01*
X24566Y-9161D01*
X24814Y-9161D01*
X19123Y-12066D02*
X19142Y-12085D01*
X19161Y-12142D01*
X19161Y-12180D01*
X19142Y-12238D01*
X19104Y-12276D01*
X19066Y-12295D01*
X18990Y-12314D01*
X18933Y-12314D01*
X18857Y-12295D01*
X18819Y-12276D01*
X18780Y-12238D01*
X18761Y-12180D01*
X18761Y-12142D01*
X18780Y-12085D01*
X18800Y-12066D01*
X19161Y-11685D02*
X19161Y-11914D01*
X19161Y-11799D02*
X18761Y-11799D01*
X18819Y-11838D01*
X18857Y-11876D01*
X18876Y-11914D01*
X7123Y-13566D02*
X7142Y-13585D01*
X7161Y-13642D01*
X7161Y-13680D01*
X7142Y-13738D01*
X7104Y-13776D01*
X7066Y-13795D01*
X6990Y-13814D01*
X6933Y-13814D01*
X6857Y-13795D01*
X6819Y-13776D01*
X6780Y-13738D01*
X6761Y-13680D01*
X6761Y-13642D01*
X6780Y-13585D01*
X6800Y-13566D01*
X6761Y-13204D02*
X6761Y-13395D01*
X6952Y-13414D01*
X6933Y-13395D01*
X6914Y-13357D01*
X6914Y-13261D01*
X6933Y-13223D01*
X6952Y-13204D01*
X6990Y-13185D01*
X7085Y-13185D01*
X7123Y-13204D01*
X7142Y-13223D01*
X7161Y-13261D01*
X7161Y-13357D01*
X7142Y-13395D01*
X7123Y-13414D01*
X19933Y-9123D02*
X19914Y-9142D01*
X19857Y-9161D01*
X19819Y-9161D01*
X19761Y-9142D01*
X19723Y-9104D01*
X19704Y-9066D01*
X19685Y-8990D01*
X19685Y-8933D01*
X19704Y-8857D01*
X19723Y-8819D01*
X19761Y-8780D01*
X19819Y-8761D01*
X19857Y-8761D01*
X19914Y-8780D01*
X19933Y-8800D01*
X20276Y-8761D02*
X20200Y-8761D01*
X20161Y-8780D01*
X20142Y-8800D01*
X20104Y-8857D01*
X20085Y-8933D01*
X20085Y-9085D01*
X20104Y-9123D01*
X20123Y-9142D01*
X20161Y-9161D01*
X20238Y-9161D01*
X20276Y-9142D01*
X20295Y-9123D01*
X20314Y-9085D01*
X20314Y-8990D01*
X20295Y-8952D01*
X20276Y-8933D01*
X20238Y-8914D01*
X20161Y-8914D01*
X20123Y-8933D01*
X20104Y-8952D01*
X20085Y-8990D01*
X24691Y-19823D02*
X24675Y-19842D01*
X24625Y-19861D01*
X24591Y-19861D01*
X24541Y-19842D01*
X24508Y-19804D01*
X24491Y-19766D01*
X24475Y-19690D01*
X24475Y-19633D01*
X24491Y-19557D01*
X24508Y-19519D01*
X24541Y-19480D01*
X24591Y-19461D01*
X24625Y-19461D01*
X24675Y-19480D01*
X24691Y-19500D01*
X24991Y-19595D02*
X24991Y-19861D01*
X24908Y-19442D02*
X24825Y-19728D01*
X25041Y-19728D01*
X24541Y-21360D02*
X24341Y-21360D01*
X24441Y-21360D02*
X24441Y-20960D01*
X24408Y-21018D01*
X24375Y-21056D01*
X24341Y-21075D01*
X24841Y-21094D02*
X24841Y-21360D01*
X24691Y-21094D02*
X24691Y-21303D01*
X24708Y-21341D01*
X24741Y-21360D01*
X24791Y-21360D01*
X24825Y-21341D01*
X24841Y-21322D01*
X25125Y-21151D02*
X25008Y-21151D01*
X25008Y-21360D02*
X25008Y-20960D01*
X25175Y-20960D01*
X25720Y-20514D02*
X26177Y-20514D01*
X25949Y-20742D02*
X25949Y-20285D01*
G54D13*
X24700Y-24591D02*
X24685Y-24606D01*
X24642Y-24620D01*
X24614Y-24620D01*
X24571Y-24606D01*
X24542Y-24577D01*
X24528Y-24549D01*
X24514Y-24491D01*
X24514Y-24449D01*
X24528Y-24391D01*
X24542Y-24363D01*
X24571Y-24334D01*
X24614Y-24320D01*
X24642Y-24320D01*
X24685Y-24334D01*
X24700Y-24349D01*
X24800Y-24320D02*
X24985Y-24320D01*
X24885Y-24434D01*
X24928Y-24434D01*
X24957Y-24449D01*
X24971Y-24463D01*
X24985Y-24491D01*
X24985Y-24563D01*
X24971Y-24591D01*
X24957Y-24606D01*
X24928Y-24620D01*
X24842Y-24620D01*
X24814Y-24606D01*
X24800Y-24591D01*
X24220Y-23321D02*
X24244Y-23321D01*
X24267Y-23335D01*
X24279Y-23350D01*
X24291Y-23378D01*
X24303Y-23435D01*
X24303Y-23507D01*
X24291Y-23564D01*
X24279Y-23592D01*
X24267Y-23607D01*
X24244Y-23621D01*
X24220Y-23621D01*
X24196Y-23607D01*
X24184Y-23592D01*
X24172Y-23564D01*
X24160Y-23507D01*
X24160Y-23435D01*
X24172Y-23378D01*
X24184Y-23350D01*
X24196Y-23335D01*
X24220Y-23321D01*
X24410Y-23592D02*
X24422Y-23607D01*
X24410Y-23621D01*
X24398Y-23607D01*
X24410Y-23592D01*
X24410Y-23621D01*
X24505Y-23321D02*
X24660Y-23321D01*
X24577Y-23435D01*
X24613Y-23435D01*
X24636Y-23450D01*
X24648Y-23464D01*
X24660Y-23492D01*
X24660Y-23564D01*
X24648Y-23592D01*
X24636Y-23607D01*
X24613Y-23621D01*
X24541Y-23621D01*
X24517Y-23607D01*
X24505Y-23592D01*
X24744Y-23321D02*
X24898Y-23321D01*
X24815Y-23435D01*
X24851Y-23435D01*
X24875Y-23450D01*
X24886Y-23464D01*
X24898Y-23492D01*
X24898Y-23564D01*
X24886Y-23592D01*
X24875Y-23607D01*
X24851Y-23621D01*
X24779Y-23621D01*
X24755Y-23607D01*
X24744Y-23592D01*
X25113Y-23421D02*
X25113Y-23621D01*
X25005Y-23421D02*
X25005Y-23578D01*
X25017Y-23607D01*
X25041Y-23621D01*
X25077Y-23621D01*
X25101Y-23607D01*
X25113Y-23592D01*
X25315Y-23464D02*
X25232Y-23464D01*
X25232Y-23621D02*
X25232Y-23321D01*
X25351Y-23321D01*
G54D20*
X25535Y-24007D02*
X25764Y-24007D01*
X25650Y-24121D02*
X25650Y-23892D01*
G54D15*
G54D18*
X35452Y-13566D02*
X35214Y-13699D01*
X35452Y-13795D02*
X34952Y-13795D01*
X34952Y-13642D01*
X34976Y-13604D01*
X35000Y-13585D01*
X35047Y-13566D01*
X35119Y-13566D01*
X35166Y-13585D01*
X35190Y-13604D01*
X35214Y-13642D01*
X35214Y-13795D01*
X35000Y-13414D02*
X34976Y-13395D01*
X34952Y-13357D01*
X34952Y-13261D01*
X34976Y-13223D01*
X35000Y-13204D01*
X35047Y-13185D01*
X35095Y-13185D01*
X35166Y-13204D01*
X35452Y-13433D01*
X35452Y-13185D01*
M02*
