G04 (created by PCBNEW (2013-07-07 BZR 4022)-stable) date 5/29/2014 5:34:06 PM*
%MOIN*%
G04 Gerber Fmt 3.4, Leading zero omitted, Abs format*
%FSLAX34Y34*%
G01*
G70*
G90*
G04 APERTURE LIST*
%ADD10C,0.00590551*%
%ADD11R,0.07X0.07*%
%ADD12C,0.07*%
%ADD13R,0.35X0.35*%
%ADD14R,0.055X0.055*%
%ADD15C,0.055*%
%ADD16O,0.062X0.09*%
%ADD17R,0.062X0.09*%
%ADD18R,0.065X0.065*%
%ADD19C,0.065*%
G04 APERTURE END LIST*
G54D10*
G54D11*
X27000Y-10000D03*
G54D12*
X27000Y-8000D03*
X27000Y-9000D03*
G54D11*
X27000Y-17000D03*
G54D12*
X27000Y-15000D03*
X27000Y-16000D03*
G54D11*
X27000Y-24000D03*
G54D12*
X27000Y-22000D03*
X27000Y-23000D03*
G54D13*
X33500Y-23000D03*
G54D14*
X15000Y-25000D03*
G54D15*
X14000Y-25000D03*
X13000Y-25000D03*
X12000Y-25000D03*
X11000Y-25000D03*
X10000Y-25000D03*
G54D14*
X33250Y-19750D03*
G54D15*
X33250Y-18750D03*
X33250Y-17750D03*
X17750Y-12500D03*
X14250Y-12500D03*
G54D16*
X11000Y-17500D03*
X12000Y-17500D03*
X13000Y-17500D03*
X14000Y-17500D03*
X15000Y-17500D03*
X16000Y-17500D03*
X17000Y-17500D03*
X18000Y-17500D03*
X19000Y-17500D03*
X20000Y-17500D03*
X21000Y-17500D03*
X22000Y-17500D03*
X23000Y-17500D03*
G54D17*
X10000Y-17500D03*
G54D16*
X23000Y-14500D03*
X22000Y-14500D03*
X21000Y-14500D03*
X20000Y-14500D03*
X19000Y-14500D03*
X18000Y-14500D03*
X17000Y-14500D03*
X16000Y-14500D03*
X15000Y-14500D03*
X14000Y-14500D03*
X13000Y-14500D03*
X12000Y-14500D03*
X11000Y-14500D03*
X10000Y-14500D03*
G54D15*
X23500Y-9000D03*
X25500Y-9000D03*
X19000Y-11000D03*
X19000Y-13000D03*
X7000Y-12500D03*
X7000Y-14500D03*
X19000Y-9000D03*
X21000Y-9000D03*
G54D18*
X25250Y-20500D03*
G54D19*
X24250Y-20500D03*
G54D14*
X25250Y-24000D03*
G54D15*
X24250Y-24000D03*
X35250Y-11750D03*
X35250Y-15250D03*
M02*
