M48
;DRILL file {Pcbnew (2013-07-07 BZR 4022)-stable} date 5/29/2014 5:34:09 PM
;FORMAT={-:-/ absolute / metric / decimal}
FMAT,2
METRIC,TZ
T1C0.813
T2C1.143
T3C3.048
%
G90
G05
M71
T1
X17.78Y-31.75
X17.78Y-36.83
X25.4Y-36.83
X25.4Y-44.45
X25.4Y-63.5
X27.94Y-36.83
X27.94Y-44.45
X27.94Y-63.5
X30.48Y-36.83
X30.48Y-44.45
X30.48Y-63.5
X33.02Y-36.83
X33.02Y-44.45
X33.02Y-63.5
X35.56Y-36.83
X35.56Y-44.45
X35.56Y-63.5
X36.195Y-31.75
X38.1Y-36.83
X38.1Y-44.45
X38.1Y-63.5
X40.64Y-36.83
X40.64Y-44.45
X43.18Y-36.83
X43.18Y-44.45
X45.085Y-31.75
X45.72Y-36.83
X45.72Y-44.45
X48.26Y-22.86
X48.26Y-27.94
X48.26Y-33.02
X48.26Y-36.83
X48.26Y-44.45
X50.8Y-36.83
X50.8Y-44.45
X53.34Y-22.86
X53.34Y-36.83
X53.34Y-44.45
X55.88Y-36.83
X55.88Y-44.45
X58.42Y-36.83
X58.42Y-44.45
X59.69Y-22.86
X61.595Y-52.07
X61.595Y-60.96
X64.135Y-52.07
X64.135Y-60.96
X64.77Y-22.86
X84.455Y-45.085
X84.455Y-47.625
X84.455Y-50.165
X89.535Y-29.845
X89.535Y-38.735
T2
X68.58Y-20.32
X68.58Y-22.86
X68.58Y-25.4
X68.58Y-38.1
X68.58Y-40.64
X68.58Y-43.18
X68.58Y-55.88
X68.58Y-58.42
X68.58Y-60.96
T3
X85.09Y-58.42
T0
M30
