G04 (created by PCBNEW (2013-07-07 BZR 4022)-stable) date 5/29/2014 5:34:10 PM*
%MOIN*%
G04 Gerber Fmt 3.4, Leading zero omitted, Abs format*
%FSLAX34Y34*%
G01*
G70*
G90*
G04 APERTURE LIST*
%ADD10C,0.005*%
%ADD11C,0.00393701*%
%ADD12C,0.00787402*%
%ADD13C,0.011811*%
G04 APERTURE END LIST*
G54D10*
G54D11*
X6000Y-26000D02*
X6000Y-6000D01*
X36000Y-26000D02*
X6000Y-26000D01*
X36000Y-6000D02*
X36000Y-26000D01*
X6000Y-6000D02*
X36000Y-6000D01*
G54D12*
X6840Y-12340D02*
X7160Y-12660D01*
X7160Y-12340D02*
X6840Y-12660D01*
X6840Y-14340D02*
X7160Y-14660D01*
X7160Y-14340D02*
X6840Y-14660D01*
X9840Y-14340D02*
X10160Y-14660D01*
X10160Y-14340D02*
X9840Y-14660D01*
X9840Y-17340D02*
X10160Y-17660D01*
X10160Y-17340D02*
X9840Y-17660D01*
X9840Y-24840D02*
X10160Y-25160D01*
X10160Y-24840D02*
X9840Y-25160D01*
X10840Y-14340D02*
X11160Y-14660D01*
X11160Y-14340D02*
X10840Y-14660D01*
X10840Y-17340D02*
X11160Y-17660D01*
X11160Y-17340D02*
X10840Y-17660D01*
X10840Y-24840D02*
X11160Y-25160D01*
X11160Y-24840D02*
X10840Y-25160D01*
X11840Y-14340D02*
X12160Y-14660D01*
X12160Y-14340D02*
X11840Y-14660D01*
X11840Y-17340D02*
X12160Y-17660D01*
X12160Y-17340D02*
X11840Y-17660D01*
X11840Y-24840D02*
X12160Y-25160D01*
X12160Y-24840D02*
X11840Y-25160D01*
X12840Y-14340D02*
X13160Y-14660D01*
X13160Y-14340D02*
X12840Y-14660D01*
X12840Y-17340D02*
X13160Y-17660D01*
X13160Y-17340D02*
X12840Y-17660D01*
X12840Y-24840D02*
X13160Y-25160D01*
X13160Y-24840D02*
X12840Y-25160D01*
X13840Y-14340D02*
X14160Y-14660D01*
X14160Y-14340D02*
X13840Y-14660D01*
X13840Y-17340D02*
X14160Y-17660D01*
X14160Y-17340D02*
X13840Y-17660D01*
X13840Y-24840D02*
X14160Y-25160D01*
X14160Y-24840D02*
X13840Y-25160D01*
X14090Y-12340D02*
X14410Y-12660D01*
X14410Y-12340D02*
X14090Y-12660D01*
X14840Y-14340D02*
X15160Y-14660D01*
X15160Y-14340D02*
X14840Y-14660D01*
X14840Y-17340D02*
X15160Y-17660D01*
X15160Y-17340D02*
X14840Y-17660D01*
X14840Y-24840D02*
X15160Y-25160D01*
X15160Y-24840D02*
X14840Y-25160D01*
X15840Y-14340D02*
X16160Y-14660D01*
X16160Y-14340D02*
X15840Y-14660D01*
X15840Y-17340D02*
X16160Y-17660D01*
X16160Y-17340D02*
X15840Y-17660D01*
X16840Y-14340D02*
X17160Y-14660D01*
X17160Y-14340D02*
X16840Y-14660D01*
X16840Y-17340D02*
X17160Y-17660D01*
X17160Y-17340D02*
X16840Y-17660D01*
X17590Y-12340D02*
X17910Y-12660D01*
X17910Y-12340D02*
X17590Y-12660D01*
X17840Y-14340D02*
X18160Y-14660D01*
X18160Y-14340D02*
X17840Y-14660D01*
X17840Y-17340D02*
X18160Y-17660D01*
X18160Y-17340D02*
X17840Y-17660D01*
X18840Y-8840D02*
X19160Y-9160D01*
X19160Y-8840D02*
X18840Y-9160D01*
X18840Y-10840D02*
X19160Y-11160D01*
X19160Y-10840D02*
X18840Y-11160D01*
X18840Y-12840D02*
X19160Y-13160D01*
X19160Y-12840D02*
X18840Y-13160D01*
X18840Y-14340D02*
X19160Y-14660D01*
X19160Y-14340D02*
X18840Y-14660D01*
X18840Y-17340D02*
X19160Y-17660D01*
X19160Y-17340D02*
X18840Y-17660D01*
X19840Y-14340D02*
X20160Y-14660D01*
X20160Y-14340D02*
X19840Y-14660D01*
X19840Y-17340D02*
X20160Y-17660D01*
X20160Y-17340D02*
X19840Y-17660D01*
X20840Y-8840D02*
X21160Y-9160D01*
X21160Y-8840D02*
X20840Y-9160D01*
X20840Y-14340D02*
X21160Y-14660D01*
X21160Y-14340D02*
X20840Y-14660D01*
X20840Y-17340D02*
X21160Y-17660D01*
X21160Y-17340D02*
X20840Y-17660D01*
X21840Y-14340D02*
X22160Y-14660D01*
X22160Y-14340D02*
X21840Y-14660D01*
X21840Y-17340D02*
X22160Y-17660D01*
X22160Y-17340D02*
X21840Y-17660D01*
X22840Y-14340D02*
X23160Y-14660D01*
X23160Y-14340D02*
X22840Y-14660D01*
X22840Y-17340D02*
X23160Y-17660D01*
X23160Y-17340D02*
X22840Y-17660D01*
X23340Y-8840D02*
X23660Y-9160D01*
X23660Y-8840D02*
X23340Y-9160D01*
X24090Y-20340D02*
X24410Y-20660D01*
X24410Y-20340D02*
X24090Y-20660D01*
X24090Y-23840D02*
X24410Y-24160D01*
X24410Y-23840D02*
X24090Y-24160D01*
X25090Y-20340D02*
X25410Y-20660D01*
X25410Y-20340D02*
X25090Y-20660D01*
X25090Y-23840D02*
X25410Y-24160D01*
X25410Y-23840D02*
X25090Y-24160D01*
X25340Y-8840D02*
X25660Y-9160D01*
X25660Y-8840D02*
X25340Y-9160D01*
X33090Y-17590D02*
X33410Y-17910D01*
X33410Y-17590D02*
X33090Y-17910D01*
X33090Y-18590D02*
X33410Y-18910D01*
X33410Y-18590D02*
X33090Y-18910D01*
X33090Y-19590D02*
X33410Y-19910D01*
X33410Y-19590D02*
X33090Y-19910D01*
X35090Y-11590D02*
X35410Y-11910D01*
X35410Y-11590D02*
X35090Y-11910D01*
X35090Y-15090D02*
X35410Y-15410D01*
X35410Y-15090D02*
X35090Y-15410D01*
X27225Y-8000D02*
G75*
G03X27225Y-8000I-225J0D01*
G74*
G01*
X27225Y-9000D02*
G75*
G03X27225Y-9000I-225J0D01*
G74*
G01*
X27225Y-10000D02*
G75*
G03X27225Y-10000I-225J0D01*
G74*
G01*
X27225Y-15000D02*
G75*
G03X27225Y-15000I-225J0D01*
G74*
G01*
X27225Y-16000D02*
G75*
G03X27225Y-16000I-225J0D01*
G74*
G01*
X27225Y-17000D02*
G75*
G03X27225Y-17000I-225J0D01*
G74*
G01*
X27225Y-22000D02*
G75*
G03X27225Y-22000I-225J0D01*
G74*
G01*
X27225Y-23000D02*
G75*
G03X27225Y-23000I-225J0D01*
G74*
G01*
X27225Y-24000D02*
G75*
G03X27225Y-24000I-225J0D01*
G74*
G01*
X33500Y-22400D02*
X33500Y-23600D01*
X32900Y-23000D02*
X34100Y-23000D01*
G54D13*
X7048Y-27796D02*
X7048Y-26615D01*
X7330Y-26615D01*
X7498Y-26672D01*
X7611Y-26784D01*
X7667Y-26897D01*
X7723Y-27122D01*
X7723Y-27290D01*
X7667Y-27515D01*
X7611Y-27628D01*
X7498Y-27740D01*
X7330Y-27796D01*
X7048Y-27796D01*
X8230Y-27796D02*
X8230Y-27009D01*
X8230Y-27234D02*
X8286Y-27122D01*
X8342Y-27065D01*
X8455Y-27009D01*
X8567Y-27009D01*
X8961Y-27796D02*
X8961Y-27009D01*
X8961Y-26615D02*
X8904Y-26672D01*
X8961Y-26728D01*
X9017Y-26672D01*
X8961Y-26615D01*
X8961Y-26728D01*
X9692Y-27796D02*
X9579Y-27740D01*
X9523Y-27628D01*
X9523Y-26615D01*
X10311Y-27796D02*
X10198Y-27740D01*
X10142Y-27628D01*
X10142Y-26615D01*
X11660Y-27796D02*
X11660Y-26615D01*
X12054Y-27459D01*
X12448Y-26615D01*
X12448Y-27796D01*
X13516Y-27796D02*
X13516Y-27178D01*
X13460Y-27065D01*
X13348Y-27009D01*
X13123Y-27009D01*
X13010Y-27065D01*
X13516Y-27740D02*
X13404Y-27796D01*
X13123Y-27796D01*
X13010Y-27740D01*
X12954Y-27628D01*
X12954Y-27515D01*
X13010Y-27403D01*
X13123Y-27347D01*
X13404Y-27347D01*
X13516Y-27290D01*
X14079Y-27009D02*
X14079Y-28190D01*
X14079Y-27065D02*
X14191Y-27009D01*
X14416Y-27009D01*
X14529Y-27065D01*
X14585Y-27122D01*
X14641Y-27234D01*
X14641Y-27571D01*
X14585Y-27684D01*
X14529Y-27740D01*
X14416Y-27796D01*
X14191Y-27796D01*
X14079Y-27740D01*
X15147Y-27684D02*
X15204Y-27740D01*
X15147Y-27796D01*
X15091Y-27740D01*
X15147Y-27684D01*
X15147Y-27796D01*
X15147Y-27065D02*
X15204Y-27122D01*
X15147Y-27178D01*
X15091Y-27122D01*
X15147Y-27065D01*
X15147Y-27178D01*
X5660Y-29639D02*
X5980Y-29959D01*
X5980Y-29639D02*
X5660Y-29959D01*
X7273Y-29096D02*
X7386Y-29096D01*
X7498Y-29152D01*
X7555Y-29208D01*
X7611Y-29321D01*
X7667Y-29546D01*
X7667Y-29827D01*
X7611Y-30052D01*
X7555Y-30164D01*
X7498Y-30221D01*
X7386Y-30277D01*
X7273Y-30277D01*
X7161Y-30221D01*
X7105Y-30164D01*
X7048Y-30052D01*
X6992Y-29827D01*
X6992Y-29546D01*
X7048Y-29321D01*
X7105Y-29208D01*
X7161Y-29152D01*
X7273Y-29096D01*
X8173Y-30164D02*
X8230Y-30221D01*
X8173Y-30277D01*
X8117Y-30221D01*
X8173Y-30164D01*
X8173Y-30277D01*
X8904Y-29602D02*
X8792Y-29546D01*
X8736Y-29489D01*
X8679Y-29377D01*
X8679Y-29321D01*
X8736Y-29208D01*
X8792Y-29152D01*
X8904Y-29096D01*
X9129Y-29096D01*
X9242Y-29152D01*
X9298Y-29208D01*
X9354Y-29321D01*
X9354Y-29377D01*
X9298Y-29489D01*
X9242Y-29546D01*
X9129Y-29602D01*
X8904Y-29602D01*
X8792Y-29658D01*
X8736Y-29714D01*
X8679Y-29827D01*
X8679Y-30052D01*
X8736Y-30164D01*
X8792Y-30221D01*
X8904Y-30277D01*
X9129Y-30277D01*
X9242Y-30221D01*
X9298Y-30164D01*
X9354Y-30052D01*
X9354Y-29827D01*
X9298Y-29714D01*
X9242Y-29658D01*
X9129Y-29602D01*
X10479Y-30277D02*
X9804Y-30277D01*
X10142Y-30277D02*
X10142Y-29096D01*
X10029Y-29264D01*
X9917Y-29377D01*
X9804Y-29433D01*
X10985Y-30277D02*
X10985Y-29489D01*
X10985Y-29602D02*
X11042Y-29546D01*
X11154Y-29489D01*
X11323Y-29489D01*
X11435Y-29546D01*
X11492Y-29658D01*
X11492Y-30277D01*
X11492Y-29658D02*
X11548Y-29546D01*
X11660Y-29489D01*
X11829Y-29489D01*
X11942Y-29546D01*
X11998Y-29658D01*
X11998Y-30277D01*
X12560Y-30277D02*
X12560Y-29489D01*
X12560Y-29602D02*
X12616Y-29546D01*
X12729Y-29489D01*
X12898Y-29489D01*
X13010Y-29546D01*
X13066Y-29658D01*
X13066Y-30277D01*
X13066Y-29658D02*
X13123Y-29546D01*
X13235Y-29489D01*
X13404Y-29489D01*
X13516Y-29546D01*
X13573Y-29658D01*
X13573Y-30277D01*
X15879Y-29039D02*
X14866Y-30558D01*
X17397Y-29096D02*
X17510Y-29096D01*
X17622Y-29152D01*
X17678Y-29208D01*
X17735Y-29321D01*
X17791Y-29546D01*
X17791Y-29827D01*
X17735Y-30052D01*
X17678Y-30164D01*
X17622Y-30221D01*
X17510Y-30277D01*
X17397Y-30277D01*
X17285Y-30221D01*
X17228Y-30164D01*
X17172Y-30052D01*
X17116Y-29827D01*
X17116Y-29546D01*
X17172Y-29321D01*
X17228Y-29208D01*
X17285Y-29152D01*
X17397Y-29096D01*
X18297Y-30164D02*
X18353Y-30221D01*
X18297Y-30277D01*
X18241Y-30221D01*
X18297Y-30164D01*
X18297Y-30277D01*
X19084Y-29096D02*
X19197Y-29096D01*
X19309Y-29152D01*
X19366Y-29208D01*
X19422Y-29321D01*
X19478Y-29546D01*
X19478Y-29827D01*
X19422Y-30052D01*
X19366Y-30164D01*
X19309Y-30221D01*
X19197Y-30277D01*
X19084Y-30277D01*
X18972Y-30221D01*
X18916Y-30164D01*
X18859Y-30052D01*
X18803Y-29827D01*
X18803Y-29546D01*
X18859Y-29321D01*
X18916Y-29208D01*
X18972Y-29152D01*
X19084Y-29096D01*
X19872Y-29096D02*
X20603Y-29096D01*
X20209Y-29546D01*
X20378Y-29546D01*
X20491Y-29602D01*
X20547Y-29658D01*
X20603Y-29771D01*
X20603Y-30052D01*
X20547Y-30164D01*
X20491Y-30221D01*
X20378Y-30277D01*
X20041Y-30277D01*
X19928Y-30221D01*
X19872Y-30164D01*
X21053Y-29208D02*
X21109Y-29152D01*
X21222Y-29096D01*
X21503Y-29096D01*
X21615Y-29152D01*
X21672Y-29208D01*
X21728Y-29321D01*
X21728Y-29433D01*
X21672Y-29602D01*
X20997Y-30277D01*
X21728Y-30277D01*
X22178Y-29096D02*
X22178Y-29321D01*
X22628Y-29096D02*
X22628Y-29321D01*
X24371Y-30727D02*
X24315Y-30670D01*
X24203Y-30502D01*
X24146Y-30389D01*
X24090Y-30221D01*
X24034Y-29939D01*
X24034Y-29714D01*
X24090Y-29433D01*
X24146Y-29264D01*
X24203Y-29152D01*
X24315Y-28983D01*
X24371Y-28927D01*
X25384Y-29096D02*
X24821Y-29096D01*
X24765Y-29658D01*
X24821Y-29602D01*
X24934Y-29546D01*
X25215Y-29546D01*
X25327Y-29602D01*
X25384Y-29658D01*
X25440Y-29771D01*
X25440Y-30052D01*
X25384Y-30164D01*
X25327Y-30221D01*
X25215Y-30277D01*
X24934Y-30277D01*
X24821Y-30221D01*
X24765Y-30164D01*
X25834Y-29096D02*
X26565Y-29096D01*
X26171Y-29546D01*
X26340Y-29546D01*
X26452Y-29602D01*
X26508Y-29658D01*
X26565Y-29771D01*
X26565Y-30052D01*
X26508Y-30164D01*
X26452Y-30221D01*
X26340Y-30277D01*
X26002Y-30277D01*
X25890Y-30221D01*
X25834Y-30164D01*
X27971Y-30277D02*
X27971Y-29096D01*
X28477Y-30277D02*
X28477Y-29658D01*
X28421Y-29546D01*
X28308Y-29489D01*
X28140Y-29489D01*
X28027Y-29546D01*
X27971Y-29602D01*
X29208Y-30277D02*
X29096Y-30221D01*
X29039Y-30164D01*
X28983Y-30052D01*
X28983Y-29714D01*
X29039Y-29602D01*
X29096Y-29546D01*
X29208Y-29489D01*
X29377Y-29489D01*
X29489Y-29546D01*
X29546Y-29602D01*
X29602Y-29714D01*
X29602Y-30052D01*
X29546Y-30164D01*
X29489Y-30221D01*
X29377Y-30277D01*
X29208Y-30277D01*
X30277Y-30277D02*
X30164Y-30221D01*
X30108Y-30108D01*
X30108Y-29096D01*
X31177Y-30221D02*
X31064Y-30277D01*
X30839Y-30277D01*
X30727Y-30221D01*
X30670Y-30108D01*
X30670Y-29658D01*
X30727Y-29546D01*
X30839Y-29489D01*
X31064Y-29489D01*
X31177Y-29546D01*
X31233Y-29658D01*
X31233Y-29771D01*
X30670Y-29883D01*
X31683Y-30221D02*
X31795Y-30277D01*
X32020Y-30277D01*
X32133Y-30221D01*
X32189Y-30108D01*
X32189Y-30052D01*
X32133Y-29939D01*
X32020Y-29883D01*
X31852Y-29883D01*
X31739Y-29827D01*
X31683Y-29714D01*
X31683Y-29658D01*
X31739Y-29546D01*
X31852Y-29489D01*
X32020Y-29489D01*
X32133Y-29546D01*
X32583Y-30727D02*
X32639Y-30670D01*
X32751Y-30502D01*
X32808Y-30389D01*
X32864Y-30221D01*
X32920Y-29939D01*
X32920Y-29714D01*
X32864Y-29433D01*
X32808Y-29264D01*
X32751Y-29152D01*
X32639Y-28983D01*
X32583Y-28927D01*
G54D12*
X5980Y-31358D02*
G75*
G03X5980Y-31358I-225J0D01*
G74*
G01*
G54D13*
X7667Y-31836D02*
X6992Y-31836D01*
X7330Y-31836D02*
X7330Y-30655D01*
X7217Y-30823D01*
X7105Y-30936D01*
X6992Y-30992D01*
X8173Y-31723D02*
X8230Y-31780D01*
X8173Y-31836D01*
X8117Y-31780D01*
X8173Y-31723D01*
X8173Y-31836D01*
X9354Y-31836D02*
X8679Y-31836D01*
X9017Y-31836D02*
X9017Y-30655D01*
X8904Y-30823D01*
X8792Y-30936D01*
X8679Y-30992D01*
X10367Y-31048D02*
X10367Y-31836D01*
X10086Y-30598D02*
X9804Y-31442D01*
X10535Y-31442D01*
X10985Y-31836D02*
X10985Y-31048D01*
X10985Y-31161D02*
X11042Y-31105D01*
X11154Y-31048D01*
X11323Y-31048D01*
X11435Y-31105D01*
X11492Y-31217D01*
X11492Y-31836D01*
X11492Y-31217D02*
X11548Y-31105D01*
X11660Y-31048D01*
X11829Y-31048D01*
X11942Y-31105D01*
X11998Y-31217D01*
X11998Y-31836D01*
X12560Y-31836D02*
X12560Y-31048D01*
X12560Y-31161D02*
X12616Y-31105D01*
X12729Y-31048D01*
X12898Y-31048D01*
X13010Y-31105D01*
X13066Y-31217D01*
X13066Y-31836D01*
X13066Y-31217D02*
X13123Y-31105D01*
X13235Y-31048D01*
X13404Y-31048D01*
X13516Y-31105D01*
X13573Y-31217D01*
X13573Y-31836D01*
X15879Y-30598D02*
X14866Y-32117D01*
X17397Y-30655D02*
X17510Y-30655D01*
X17622Y-30711D01*
X17678Y-30767D01*
X17735Y-30880D01*
X17791Y-31105D01*
X17791Y-31386D01*
X17735Y-31611D01*
X17678Y-31723D01*
X17622Y-31780D01*
X17510Y-31836D01*
X17397Y-31836D01*
X17285Y-31780D01*
X17228Y-31723D01*
X17172Y-31611D01*
X17116Y-31386D01*
X17116Y-31105D01*
X17172Y-30880D01*
X17228Y-30767D01*
X17285Y-30711D01*
X17397Y-30655D01*
X18297Y-31723D02*
X18353Y-31780D01*
X18297Y-31836D01*
X18241Y-31780D01*
X18297Y-31723D01*
X18297Y-31836D01*
X19084Y-30655D02*
X19197Y-30655D01*
X19309Y-30711D01*
X19366Y-30767D01*
X19422Y-30880D01*
X19478Y-31105D01*
X19478Y-31386D01*
X19422Y-31611D01*
X19366Y-31723D01*
X19309Y-31780D01*
X19197Y-31836D01*
X19084Y-31836D01*
X18972Y-31780D01*
X18916Y-31723D01*
X18859Y-31611D01*
X18803Y-31386D01*
X18803Y-31105D01*
X18859Y-30880D01*
X18916Y-30767D01*
X18972Y-30711D01*
X19084Y-30655D01*
X20491Y-31048D02*
X20491Y-31836D01*
X20209Y-30598D02*
X19928Y-31442D01*
X20659Y-31442D01*
X21672Y-30655D02*
X21109Y-30655D01*
X21053Y-31217D01*
X21109Y-31161D01*
X21222Y-31105D01*
X21503Y-31105D01*
X21615Y-31161D01*
X21672Y-31217D01*
X21728Y-31330D01*
X21728Y-31611D01*
X21672Y-31723D01*
X21615Y-31780D01*
X21503Y-31836D01*
X21222Y-31836D01*
X21109Y-31780D01*
X21053Y-31723D01*
X22178Y-30655D02*
X22178Y-30880D01*
X22628Y-30655D02*
X22628Y-30880D01*
X24371Y-32286D02*
X24315Y-32230D01*
X24203Y-32061D01*
X24146Y-31948D01*
X24090Y-31780D01*
X24034Y-31498D01*
X24034Y-31273D01*
X24090Y-30992D01*
X24146Y-30823D01*
X24203Y-30711D01*
X24315Y-30542D01*
X24371Y-30486D01*
X24877Y-31836D02*
X25102Y-31836D01*
X25215Y-31780D01*
X25271Y-31723D01*
X25384Y-31555D01*
X25440Y-31330D01*
X25440Y-30880D01*
X25384Y-30767D01*
X25327Y-30711D01*
X25215Y-30655D01*
X24990Y-30655D01*
X24877Y-30711D01*
X24821Y-30767D01*
X24765Y-30880D01*
X24765Y-31161D01*
X24821Y-31273D01*
X24877Y-31330D01*
X24990Y-31386D01*
X25215Y-31386D01*
X25327Y-31330D01*
X25384Y-31273D01*
X25440Y-31161D01*
X26846Y-31836D02*
X26846Y-30655D01*
X27352Y-31836D02*
X27352Y-31217D01*
X27296Y-31105D01*
X27183Y-31048D01*
X27015Y-31048D01*
X26902Y-31105D01*
X26846Y-31161D01*
X28083Y-31836D02*
X27971Y-31780D01*
X27915Y-31723D01*
X27858Y-31611D01*
X27858Y-31273D01*
X27915Y-31161D01*
X27971Y-31105D01*
X28083Y-31048D01*
X28252Y-31048D01*
X28365Y-31105D01*
X28421Y-31161D01*
X28477Y-31273D01*
X28477Y-31611D01*
X28421Y-31723D01*
X28365Y-31780D01*
X28252Y-31836D01*
X28083Y-31836D01*
X29152Y-31836D02*
X29039Y-31780D01*
X28983Y-31667D01*
X28983Y-30655D01*
X30052Y-31780D02*
X29939Y-31836D01*
X29714Y-31836D01*
X29602Y-31780D01*
X29546Y-31667D01*
X29546Y-31217D01*
X29602Y-31105D01*
X29714Y-31048D01*
X29939Y-31048D01*
X30052Y-31105D01*
X30108Y-31217D01*
X30108Y-31330D01*
X29546Y-31442D01*
X30558Y-31780D02*
X30670Y-31836D01*
X30895Y-31836D01*
X31008Y-31780D01*
X31064Y-31667D01*
X31064Y-31611D01*
X31008Y-31498D01*
X30895Y-31442D01*
X30727Y-31442D01*
X30614Y-31386D01*
X30558Y-31273D01*
X30558Y-31217D01*
X30614Y-31105D01*
X30727Y-31048D01*
X30895Y-31048D01*
X31008Y-31105D01*
X31458Y-32286D02*
X31514Y-32230D01*
X31627Y-32061D01*
X31683Y-31948D01*
X31739Y-31780D01*
X31795Y-31498D01*
X31795Y-31273D01*
X31739Y-30992D01*
X31683Y-30823D01*
X31627Y-30711D01*
X31514Y-30542D01*
X31458Y-30486D01*
X5380Y-32317D02*
X5380Y-33517D01*
X4780Y-32917D02*
X5980Y-32917D01*
X6936Y-32214D02*
X7667Y-32214D01*
X7273Y-32664D01*
X7442Y-32664D01*
X7555Y-32720D01*
X7611Y-32776D01*
X7667Y-32889D01*
X7667Y-33170D01*
X7611Y-33282D01*
X7555Y-33339D01*
X7442Y-33395D01*
X7105Y-33395D01*
X6992Y-33339D01*
X6936Y-33282D01*
X8173Y-33282D02*
X8230Y-33339D01*
X8173Y-33395D01*
X8117Y-33339D01*
X8173Y-33282D01*
X8173Y-33395D01*
X8961Y-32214D02*
X9073Y-32214D01*
X9186Y-32270D01*
X9242Y-32326D01*
X9298Y-32439D01*
X9354Y-32664D01*
X9354Y-32945D01*
X9298Y-33170D01*
X9242Y-33282D01*
X9186Y-33339D01*
X9073Y-33395D01*
X8961Y-33395D01*
X8848Y-33339D01*
X8792Y-33282D01*
X8736Y-33170D01*
X8679Y-32945D01*
X8679Y-32664D01*
X8736Y-32439D01*
X8792Y-32326D01*
X8848Y-32270D01*
X8961Y-32214D01*
X10423Y-32214D02*
X9861Y-32214D01*
X9804Y-32776D01*
X9861Y-32720D01*
X9973Y-32664D01*
X10254Y-32664D01*
X10367Y-32720D01*
X10423Y-32776D01*
X10479Y-32889D01*
X10479Y-33170D01*
X10423Y-33282D01*
X10367Y-33339D01*
X10254Y-33395D01*
X9973Y-33395D01*
X9861Y-33339D01*
X9804Y-33282D01*
X10985Y-33395D02*
X10985Y-32607D01*
X10985Y-32720D02*
X11042Y-32664D01*
X11154Y-32607D01*
X11323Y-32607D01*
X11435Y-32664D01*
X11492Y-32776D01*
X11492Y-33395D01*
X11492Y-32776D02*
X11548Y-32664D01*
X11660Y-32607D01*
X11829Y-32607D01*
X11942Y-32664D01*
X11998Y-32776D01*
X11998Y-33395D01*
X12560Y-33395D02*
X12560Y-32607D01*
X12560Y-32720D02*
X12616Y-32664D01*
X12729Y-32607D01*
X12898Y-32607D01*
X13010Y-32664D01*
X13066Y-32776D01*
X13066Y-33395D01*
X13066Y-32776D02*
X13123Y-32664D01*
X13235Y-32607D01*
X13404Y-32607D01*
X13516Y-32664D01*
X13573Y-32776D01*
X13573Y-33395D01*
X15879Y-32158D02*
X14866Y-33676D01*
X17397Y-32214D02*
X17510Y-32214D01*
X17622Y-32270D01*
X17678Y-32326D01*
X17735Y-32439D01*
X17791Y-32664D01*
X17791Y-32945D01*
X17735Y-33170D01*
X17678Y-33282D01*
X17622Y-33339D01*
X17510Y-33395D01*
X17397Y-33395D01*
X17285Y-33339D01*
X17228Y-33282D01*
X17172Y-33170D01*
X17116Y-32945D01*
X17116Y-32664D01*
X17172Y-32439D01*
X17228Y-32326D01*
X17285Y-32270D01*
X17397Y-32214D01*
X18297Y-33282D02*
X18353Y-33339D01*
X18297Y-33395D01*
X18241Y-33339D01*
X18297Y-33282D01*
X18297Y-33395D01*
X19478Y-33395D02*
X18803Y-33395D01*
X19141Y-33395D02*
X19141Y-32214D01*
X19028Y-32383D01*
X18916Y-32495D01*
X18803Y-32551D01*
X19928Y-32326D02*
X19984Y-32270D01*
X20097Y-32214D01*
X20378Y-32214D01*
X20491Y-32270D01*
X20547Y-32326D01*
X20603Y-32439D01*
X20603Y-32551D01*
X20547Y-32720D01*
X19872Y-33395D01*
X20603Y-33395D01*
X21334Y-32214D02*
X21447Y-32214D01*
X21559Y-32270D01*
X21615Y-32326D01*
X21672Y-32439D01*
X21728Y-32664D01*
X21728Y-32945D01*
X21672Y-33170D01*
X21615Y-33282D01*
X21559Y-33339D01*
X21447Y-33395D01*
X21334Y-33395D01*
X21222Y-33339D01*
X21165Y-33282D01*
X21109Y-33170D01*
X21053Y-32945D01*
X21053Y-32664D01*
X21109Y-32439D01*
X21165Y-32326D01*
X21222Y-32270D01*
X21334Y-32214D01*
X22178Y-32214D02*
X22178Y-32439D01*
X22628Y-32214D02*
X22628Y-32439D01*
X24371Y-33845D02*
X24315Y-33789D01*
X24203Y-33620D01*
X24146Y-33507D01*
X24090Y-33339D01*
X24034Y-33057D01*
X24034Y-32832D01*
X24090Y-32551D01*
X24146Y-32383D01*
X24203Y-32270D01*
X24315Y-32101D01*
X24371Y-32045D01*
X25440Y-33395D02*
X24765Y-33395D01*
X25102Y-33395D02*
X25102Y-32214D01*
X24990Y-32383D01*
X24877Y-32495D01*
X24765Y-32551D01*
X26846Y-33395D02*
X26846Y-32214D01*
X27352Y-33395D02*
X27352Y-32776D01*
X27296Y-32664D01*
X27183Y-32607D01*
X27015Y-32607D01*
X26902Y-32664D01*
X26846Y-32720D01*
X28083Y-33395D02*
X27971Y-33339D01*
X27915Y-33282D01*
X27858Y-33170D01*
X27858Y-32832D01*
X27915Y-32720D01*
X27971Y-32664D01*
X28083Y-32607D01*
X28252Y-32607D01*
X28365Y-32664D01*
X28421Y-32720D01*
X28477Y-32832D01*
X28477Y-33170D01*
X28421Y-33282D01*
X28365Y-33339D01*
X28252Y-33395D01*
X28083Y-33395D01*
X29152Y-33395D02*
X29039Y-33339D01*
X28983Y-33226D01*
X28983Y-32214D01*
X30052Y-33339D02*
X29939Y-33395D01*
X29714Y-33395D01*
X29602Y-33339D01*
X29546Y-33226D01*
X29546Y-32776D01*
X29602Y-32664D01*
X29714Y-32607D01*
X29939Y-32607D01*
X30052Y-32664D01*
X30108Y-32776D01*
X30108Y-32889D01*
X29546Y-33001D01*
X30502Y-33845D02*
X30558Y-33789D01*
X30670Y-33620D01*
X30727Y-33507D01*
X30783Y-33339D01*
X30839Y-33057D01*
X30839Y-32832D01*
X30783Y-32551D01*
X30727Y-32383D01*
X30670Y-32270D01*
X30558Y-32101D01*
X30502Y-32045D01*
M02*
